<?xml version="1.0" encoding="UTF-8"?><svg id="Layer_1" xmlns="http://www.w3.org/2000/svg" viewBox="0 0 365 320"><defs><style>.cls-1{fill:#be0d30;}.cls-2{fill:#fff;}.cls-3{fill:#1d3869;}</style></defs><path class="cls-2" d="M46.58,297.1c-3.96,2.55-9.04,3.84-15.31,3.85-7.14.03-12.76-1.7-16.8-5.13l.07,14.51h-5.77s-.14-42.59-.14-42.59h5.77v4.41c3.97-3.43,9.54-5.13,16.67-5.17,6.26,0,11.37,1.25,15.28,3.73,4.78,3,7.16,7.41,7.19,13.12,0,5.8-2.32,10.22-6.95,13.27ZM43.12,274.81c-2.92-2.04-6.77-3.03-11.52-3.01-4.8,0-8.82.99-11.98,3-3.48,2.18-5.21,5.19-5.17,9.01.01,4.31,1.65,7.5,4.95,9.59,2.94,1.87,7.02,2.77,12.21,2.75,4.77,0,8.61-1.01,11.52-3,3.18-2.17,4.77-5.25,4.77-9.22s-1.59-6.97-4.77-9.12Z"/><path class="cls-2" d="M60.99,285.5c.93,6.54,6.55,9.79,16.89,9.76,8.24-.02,13.7-2.47,16.35-7.29h6.05c-2.33,5.18-5.84,8.56-10.56,10.19-3.46,1.21-7.48,1.82-12.05,1.84-6.39.03-11.55-1.16-15.43-3.53-4.67-2.78-7.01-7.09-7.04-12.89-.03-5.62,2.49-9.91,7.54-12.92,4.18-2.5,9.28-3.77,15.31-3.77,6.01-.03,10.98,1.03,15.03,3.19,5.13,2.75,7.74,6.82,7.74,12.22v3.04l-39.84.16ZM78.07,271.61c-4.19.01-7.78.73-10.77,2.23-3.32,1.59-5.37,3.92-6.14,7.01l33.38-.1c-.56-3.27-2.72-5.71-6.44-7.3-2.88-1.24-6.21-1.87-10.04-1.84Z"/><path class="cls-2" d="M114.01,275.41c-2.87,2.59-4.29,6.24-4.27,10.88v12.91h-5.73l-.09-31.68,5.76-.03v4.22c1.01-.81,2.2-1.55,3.58-2.2,3.83-1.82,8.84-2.75,15.01-2.75v4.73c-6.57.01-11.36,1.3-14.26,3.92Z"/><path class="cls-2" d="M141.3,268.61v1.03l9.7-.03.03,4.86-9.7.03.05,24.67-5.7.04-.05-24.69h-6.37s-.01-4.83-.01-4.83l6.35-.03v-1.04c0-8.43,7.81-12.66,23.45-12.71v4.75c-11.83.04-17.77,2.7-17.74,7.96Z"/><path class="cls-2" d="M188.9,299.03v-3.45c-3.54,2.73-8.55,4.13-15.04,4.13-4.91.03-8.95-.74-12.17-2.22-4.39-2.07-6.56-5.32-6.6-9.79l-.04-20.29h5.77l.04,20.2c.03,4.93,4.34,7.39,13,7.38,4.57-.02,8.13-.81,10.67-2.45,2.85-1.8,4.34-4.53,4.34-8.16l-.06-17.04,5.77-.03.08,31.69-5.76.02Z"/><path class="cls-2" d="M260.5,298.8l-.02-20.4c-.04-4.83-3.62-7.24-10.79-7.23-3.64,0-6.65.63-9.05,1.89-2.74,1.48-4.07,3.54-4.07,6.24l.06,19.57-5.77.03-.06-20.42c-.03-4.86-3.71-7.24-11.03-7.21-3.82,0-6.95.88-9.33,2.64-2.42,1.81-3.63,4.29-3.63,7.42l.06,17.64h-5.77s-.1-31.69-.1-31.69h5.78v3.17c3.36-2.6,7.99-3.89,13.87-3.92,6.35,0,10.94,1.64,13.79,5.01,3.04-3.37,8.05-5.08,15.03-5.08,11.12-.02,16.67,3.73,16.7,11.36l.05,20.99h-5.71Z"/><path class="cls-2" d="M275.51,284.95c.93,6.55,6.55,9.8,16.88,9.77,8.24-.01,13.7-2.45,16.37-7.29l6.02-.03c-2.3,5.22-5.82,8.6-10.52,10.22-3.47,1.2-7.46,1.83-12.05,1.85-6.42,0-11.55-1.18-15.45-3.54-4.66-2.78-7.04-7.09-7.04-12.88-.03-5.63,2.5-9.92,7.58-12.91,4.18-2.5,9.25-3.78,15.26-3.79,6.02-.01,11.02,1.05,15.06,3.21,5.13,2.77,7.71,6.84,7.71,12.22v3.04l-39.83.15ZM292.59,271.05c-4.19.01-7.75.75-10.74,2.24-3.33,1.6-5.38,3.93-6.15,7.01l33.4-.1c-.58-3.26-2.75-5.7-6.47-7.3-2.83-1.23-6.2-1.85-10.03-1.85Z"/><path class="cls-2" d="M348.07,298.03c-2.96.94-6.56,1.4-10.89,1.43-13.42.03-20.16-4.65-20.18-14.02h5.9c0,3.24,1.11,5.57,3.29,7.01,2.18,1.45,5.87,2.17,11.07,2.15,8.15-.01,12.23-1.61,12.21-4.75,0-1.93-2.68-3.31-8.13-4.2-2.84-.31-5.68-.59-8.59-.9-4.11-.49-7.22-1.3-9.4-2.37-2.99-1.53-4.49-3.71-4.51-6.54,0-3.53,2.14-6.15,6.45-7.85,3.04-1.21,6.47-1.83,10.32-1.83,12.98-.04,19.46,4.19,19.48,12.71h-5.94c0-2.74-.98-4.73-2.82-5.95-2.05-1.28-5.46-1.92-10.24-1.92-2.82.03-5.31.38-7.5,1.12-2.54.94-3.83,2.15-3.83,3.72.01,1.89,2.62,3.18,7.93,3.79l9.24,1.14c8.95,1.07,13.42,4.09,13.45,9.05,0,3.87-2.43,6.57-7.3,8.21Z"/><path class="cls-3" d="M282.19,62.12c20.46-30.87,14.42-52.96,14.42-52.96,1.23,7.62-8.86,24.89-8.71,24.72-9.9,17.1-24.66,33.77-59.38,34.38-42.27.74-59.57,42.68-60.46,65.37,11.14-37.82,44.72-36.03,70.86-40.23,19.01-3.06,33.72-16.52,43.27-31.28Z"/><path class="cls-1" d="M255.19,118.63c.09-.05.19-.06.29-.11-.12-.22-.23-.43-.35-.65-1.12-2.02-2.4-3.73-3.75-5.53-1.67-2.22-3.69-4-5.68-5.95-2.48-2.19-5.09-3.76-7.82-5.5-17.55-10.37-38.75-4.86-54.07,6.8-.54.31-1.16-.12-.97-.52,4.87-13.43,18.92-18.75,31.38-22.63.09-.07.06-.42-.09-.44-15.04-1.03-29,7.14-38.05,18.46-.14.18-.24.35-.37.51,9.88-17.09,25.86-34.63,60.57-35.24,42.28-.73,60.41-37.49,61.31-60.19-11.14,37.83-40.13,25.79-71.38,37.03-23.64,8.52-47.66,36.57-55.56,73.04-.32,2.5-.06,12.78,0,15.49.05,2.69.53,6.23,1.11,8.85.59,2.62,4.25,24.82,4.25-3.64,0-9.26,6.33-16.83,11.54-23.67.67-1.07,1.38-2.13,2.18-3.12,2.55-3.19,5.73-5.96,9.41-8.15,3.69-2.2,7.75-3.75,12.02-4.57,4.27-.86,8.66-.98,12.99-.38,2.16.31,4.31.78,6.38,1.42,10.47,2.75,19.27,9.57,24.65,18.66Z"/><path class="cls-2" d="M222.51,90.17c-8.52,0-16.24,1.8-23.15,5.41-6.92,3.61-13.05,9.05-18.37,16.37l.36-20.67s-16.54,21.15-27.2,28.79c-.07.03-.14.06-.22.1-3.67,2.97-8.01,5.37-13.1,7.22-5.45,1.98-11.06,2.97-16.83,2.97-11.96,0-21.97-4.16-30.1-12.51-8.14-8.36-12.35-19.03-12.64-32.1h101.97c-.14-15.39-4.32-28.2-12.51-38.48-11.52-14.55-26.91-21.82-46.23-21.82s-33.68,7.07-44.87,21.28c-8.83,11.17-13.22,23.9-13.22,38.17,0,15.18,5.19,28.77,15.61,40.81,10.4,12.01,24.84,18.02,43.28,18.02,8.31,0,15.77-1.25,22.37-3.75,6.59-2.51,12.52-6.15,17.79-10.99.5-.42.95-.91,1.42-1.37v28.94h-20.63v14.3h20.63v68.36h14.32v-68.36h35.89v-14.3h-35.63c-.13-.48-.16-.99-.26-1.48v-19.36c1.62-7.79,5.23-14.61,10.93-20.41,7.96-8.1,17.73-12.14,29.37-12.14,7.46,0,14.4,1.83,20.7,5.49,4.54,2.65,8.42,6.06,11.63,10.23v-18.6c-9.09-6.73-19.54-10.1-31.33-10.1ZM95.99,49.9c8-7.1,17.57-10.67,28.7-10.67,6.77,0,13.22,1.42,19.35,4.24,6.1,2.84,11.04,6.59,14.75,11.21,3.71,4.63,6.56,10.81,8.52,18.55h-84.59c3.01-10.36,7.43-18.14,13.26-23.33Z"/><path class="cls-2" d="M314.24,17.63c0,3.59-2.82,6.41-6.49,6.41s-6.53-2.82-6.53-6.41,2.9-6.34,6.53-6.34,6.49,2.82,6.49,6.34ZM302.83,17.63c0,2.82,2.09,5.06,4.95,5.06s4.83-2.24,4.83-5.03-2.05-5.1-4.87-5.1-4.91,2.28-4.91,5.06ZM306.74,20.96h-1.47v-6.34c.58-.12,1.39-.19,2.44-.19,1.2,0,1.74.19,2.2.46.35.27.62.77.62,1.39,0,.7-.54,1.24-1.31,1.47v.08c.62.23.97.7,1.16,1.55.2.97.31,1.35.47,1.58h-1.59c-.19-.23-.31-.81-.5-1.55-.11-.7-.5-1.01-1.31-1.01h-.7v2.55ZM306.78,17.36h.7c.81,0,1.47-.27,1.47-.93,0-.58-.42-.97-1.35-.97-.39,0-.66.04-.81.08v1.82Z"/></svg>